<?xml version="1.0" encoding="utf-8"?>
<!-- Generator: Adobe Illustrator 16.0.0, SVG Export Plug-In . SVG Version: 6.00 Build 0)  -->
<!DOCTYPE svg PUBLIC "-//W3C//DTD SVG 1.1//EN" "http://www.w3.org/Graphics/SVG/1.1/DTD/svg11.dtd">
<svg version="1.1" id="레이어_1" xmlns="http://www.w3.org/2000/svg" xmlns:xlink="http://www.w3.org/1999/xlink" x="0px"
	 y="0px" width="595.279px" height="420.198px" viewBox="0 210.846 595.279 420.198"
	 enable-background="new 0 210.846 595.279 420.198" xml:space="preserve">
<path fill="#FF0000" d="M582.323,278.603c-6.828-25.649-21.797-47.36-47.447-54.188c-46.484-12.431-237.236-13.569-237.236-13.569
	s-190.752,1.138-237.236,13.569c-25.649,6.828-40.531,28.539-47.447,54.188C0.526,325.087,0,420.945,0,420.945
	s0.525,95.857,12.956,142.341c6.828,25.65,21.798,47.359,47.447,54.189c46.484,12.43,237.236,13.568,237.236,13.568
	s190.752-1.139,237.236-13.568c25.65-6.83,40.619-28.539,47.447-54.189c12.432-46.484,12.956-142.341,12.956-142.341
	S594.755,325.087,582.323,278.603z"/>
<path fill="#FFFFFF" d="M393.935,420.945l-157.573-87.542v175.082"/>
</svg>
